<svg id="Layer_1" data-name="Layer 1" xmlns="http://www.w3.org/2000/svg" viewBox="0 0 335.02 314.72"><defs><style>.cls-1{fill:#ffffff;}</style></defs><title>Living arrangements icon</title><path class="cls-1" d="M39.51,243.11v-147a19.43,19.43,0,0,1,6.62-6l113-66c5.68-3.33,11-3.46,16.85,0,36,21.16,72.15,42.14,108.2,63.24,4.13,2.42,8.7,4.37,11.36,8.73v147c-3.09,4.94-7.81,6.26-13.31,6.26H52.32C46.86,249.4,42.52,247.75,39.51,243.11Zm127.91-15.24h101c6.54,0,6.74-.21,6.74-6.75,0-36-.06-72,.09-108,0-4.34-1.25-7-5.11-9.19q-49.3-28.52-98.37-57.42c-2.91-1.7-5.3-1.84-8.28-.08q-49.16,28.88-98.41,57.45c-3.79,2.19-5.29,4.68-5.27,9.1.16,36,.09,72,.09,108,0,6.83.09,6.92,7.07,6.92Z"/><path class="cls-1" d="M168,188.85c3-7.53,7.13-14.28,14-18.87,2.2-1.48,4.5-2.84,6.83-4.12a9.7,9.7,0,0,1,9.48-.16,30.78,30.78,0,0,0,27.49-.13,9,9,0,0,1,8.5.06c11.86,5.69,19.77,14.47,22.23,27.66,1.09,5.84.23,7-5.5,7q-83.47.06-166.95,0c-5.62,0-6.51-1.08-5.56-6.54,2.49-14.26,11.19-23.38,24.15-28.94,2.23-1,4.15-.41,6.19.56,9.44,4.5,19,4.62,28.42.11a8.89,8.89,0,0,1,8.11-.07c8.77,4.05,15.64,10.06,19.7,19,.55,1.21,1.1,2.43,1.7,3.61C166.87,188.27,167.25,188.38,168,188.85Z"/><path class="cls-1" d="M123,160.49c-14.25-.05-24.89-11-24.87-25.51A25,25,0,0,1,123,109.8h.49c13.75.09,25.46,12,25.28,25.6A25.53,25.53,0,0,1,123,160.49Z"/><path class="cls-1" d="M236.9,135.33c0,14.41-10.87,25.22-25.23,25.16a25.52,25.52,0,0,1-25.36-25.44c0-13.69,11.83-25.32,25.62-25.25C226,109.87,236.93,121,236.9,135.33Z"/></svg>